<svg id="Layer_1" enable-background="new 0 0 512 512" height="512" viewBox="0 0 512 512" width="512" xmlns="http://www.w3.org/2000/svg"><path d="m256.18 326.84c-4.058 0-7.798-2.555-9.291-6.322-1.536-3.872-.442-8.446 2.698-11.195 3.221-2.82 8.058-3.27 11.731-1.057 3.557 2.143 5.47 6.362 4.683 10.449-.896 4.65-5.08 8.125-9.821 8.125z"/><path d="m482.019 253.393c7.268-8.859 11.636-20.184 11.636-32.51 0-24.884-17.798-45.69-41.333-50.355v-32.028c0-5.523-4.477-10-10-10s-10 4.477-10 10v32.028c-23.535 4.665-41.333 25.471-41.333 50.355 0 12.013 4.148 23.076 11.088 31.831h-30.868v-63.158c0-5.522-4.477-10-10-10h-26.33v-17.041c0-5.522-4.477-10-10-10s-10 4.478-10 10v17.041h-26.331c-5.523 0-10 4.478-10 10v63.158h-30.868c6.939-8.755 11.088-19.818 11.088-31.831 0-24.884-17.798-45.69-41.333-50.355v-32.028c0-5.523-4.477-10-10-10s-10 4.477-10 10v32.028c-23.535 4.665-41.333 25.471-41.333 50.355 0 12.013 4.148 23.076 11.088 31.831h-30.868v-63.158c0-5.522-4.477-10-10-10h-26.33v-27.047c0-5.523-4.477-10-10-10s-10 4.477-10 10v27.047h-26.331c-5.523 0-10 4.478-10 10v63.158h-6.598c-20.437 0-37.063 16.627-37.063 37.063 0 20.437 16.626 37.063 37.063 37.063h4.148c4.4 31.962 31.892 56.66 65.044 56.66h299.489c33.152 0 60.645-24.698 65.044-56.66h4.148c20.436 0 37.063-16.626 37.063-37.063.001-18.015-12.919-33.07-29.98-36.384zm-274.584-63.843c17.277 0 31.333 14.056 31.333 31.333s-14.056 31.333-31.333 31.333-31.333-14.056-31.333-31.333c-.001-17.278 14.055-31.333 31.333-31.333zm234.886 0c17.277 0 31.333 14.056 31.333 31.333s-14.056 31.333-31.333 31.333-31.333-14.056-31.333-31.333c0-17.278 14.056-31.333 31.333-31.333zm-143.774 10.006h52.661v53.158h-52.661zm-234.886 0h52.661v53.158h-52.661zm411.276 107.284h-173.731c-5.523 0-10 4.478-10 10s4.477 10 10 10h149.306c-4.191 20.882-22.671 36.66-44.768 36.66h-299.489c-22.097 0-40.577-15.778-44.768-36.66h149.306c5.523 0 10-4.478 10-10s-4.477-10-10-10h-173.73c-9.409 0-17.063-7.654-17.063-17.063s7.654-17.063 17.063-17.063h437.874c9.409 0 17.063 7.654 17.063 17.063 0 9.408-7.654 17.063-17.063 17.063z"/></svg>