<svg id="Capa_1" enable-background="new 0 0 512 512" height="512" viewBox="0 0 512 512" width="512" xmlns="http://www.w3.org/2000/svg"><path d="m256 60h-180c-5.523 0-10 4.477-10 10s4.477 10 10 10h180c5.522 0 10-4.477 10-10s-4.478-10-10-10z"/><path d="m346 60h-30c-5.522 0-10 4.477-10 10s4.478 10 10 10h30c5.522 0 10-4.477 10-10s-4.478-10-10-10z"/><path d="m436 60h-30c-5.522 0-10 4.477-10 10s4.478 10 10 10h30c5.522 0 10-4.477 10-10s-4.478-10-10-10z"/><path d="m151 186c-5.523 0-10 4.477-10 10v20.726c-30.609 4.399-54.875 28.666-59.274 59.274h-5.726c-5.523 0-10 4.477-10 10s4.477 10 10 10h150c5.523 0 10-4.477 10-10s-4.477-10-10-10h-5.713c-4.357-30.632-28.598-54.922-59.287-59.287v-20.713c0-5.523-4.477-10-10-10zm49.001 90h-97.995c4.646-22.795 24.847-40 48.994-40 24.474 0 44.445 17.443 49.001 40z"/><path d="m361 186c-5.522 0-10 4.477-10 10v20.726c-30.608 4.399-54.875 28.666-59.274 59.274h-5.726c-5.522 0-10 4.477-10 10s4.478 10 10 10h150c5.522 0 10-4.477 10-10s-4.478-10-10-10h-5.713c-4.357-30.631-28.597-54.922-59.287-59.287v-20.713c0-5.523-4.478-10-10-10zm49.001 90h-97.995c4.646-22.795 24.847-40 48.994-40 24.473 0 44.445 17.442 49.001 40z"/><path d="m236 346c0-5.523-4.477-10-10-10h-150c-5.523 0-10 4.477-10 10s4.477 10 10 10h150c5.523 0 10-4.477 10-10z"/><path d="m286 356h150c5.522 0 10-4.477 10-10s-4.478-10-10-10h-150c-5.522 0-10 4.477-10 10s4.478 10 10 10z"/><path d="m76 396c-5.523 0-10 4.477-10 10s4.477 10 10 10h120c5.523 0 10-4.477 10-10s-4.477-10-10-10z"/><path d="m286 416h120c5.522 0 10-4.477 10-10s-4.478-10-10-10h-120c-5.522 0-10 4.477-10 10s4.478 10 10 10z"/><circle cx="256" cy="502" r="10"/><path d="m482 0h-452c-16.542 0-30 13.458-30 30v452c0 16.542 13.458 30 30 30h181c5.523 0 10-4.477 10-10s-4.477-10-10-10h-181c-5.514 0-10-4.486-10-10v-342h472v342c0 5.514-4.486 10-10 10h-181c-5.522 0-10 4.477-10 10s4.478 10 10 10h181c16.542 0 30-13.458 30-30v-452c0-16.542-13.458-30-30-30zm-462 120v-90c0-5.514 4.486-10 10-10h452c5.514 0 10 4.486 10 10v90z"/></svg>