<?xml version="1.0" encoding="iso-8859-1"?>
<!-- Generator: Adobe Illustrator 18.0.0, SVG Export Plug-In . SVG Version: 6.00 Build 0)  -->
<!DOCTYPE svg PUBLIC "-//W3C//DTD SVG 1.1//EN" "http://www.w3.org/Graphics/SVG/1.1/DTD/svg11.dtd">
<svg version="1.1" id="Capa_1" xmlns="http://www.w3.org/2000/svg" xmlns:xlink="http://www.w3.org/1999/xlink" x="0px" y="0px"
	 viewBox="0 0 460.627 460.627" style="enable-background:new 0 0 460.627 460.627;" xml:space="preserve">
<g>
	<path d="M260.117,304.674c-2.836-6.506-6.721-15.415-13.909-25.413c-1.611-2.24-4.735-2.753-6.978-1.141
		c-2.242,1.611-2.753,4.736-1.141,6.979c6.566,9.133,10.205,17.479,12.861,23.571c1.804,4.139,3.229,7.407,5.017,9.682
		c0.987,1.256,2.453,1.911,3.935,1.911c1.081,0,2.17-0.349,3.086-1.068c2.171-1.706,2.548-4.85,0.842-7.021
		C262.835,310.907,261.575,308.018,260.117,304.674z"/>
	<path d="M177.749,229.952c-21.828-8.691-42.816-15.158-62.382-19.22c-2.707-0.565-5.351,1.176-5.912,3.879
		c-0.562,2.704,1.175,5.351,3.879,5.912c18.999,3.944,39.427,10.242,60.716,18.72c21.521,8.568,39.026,19.324,52.027,31.967
		c0.972,0.944,2.229,1.415,3.485,1.415c1.303,0,2.605-0.506,3.585-1.515c1.925-1.979,1.881-5.145-0.099-7.07
		C219.101,250.477,200.496,239.008,177.749,229.952z"/>
	<path d="M93.664,207.156c-6.564-0.775-12.757-1.204-18.406-1.274c-2.731-0.015-5.028,2.176-5.062,4.938
		c-0.034,2.762,2.176,5.027,4.938,5.063c5.3,0.065,17.754,1.24,17.95,1.24c2.499,0,4.659-1.87,4.959-4.413
		C98.367,209.966,96.406,207.48,93.664,207.156z"/>
	<path d="M205.329,234.219c0.805,0.482,1.691,0.712,2.565,0.712c1.7,0,3.356-0.867,4.293-2.431
		c2.941-4.906,8.137-9.391,15.443-13.329c2.431-1.311,3.339-4.343,2.029-6.773c-1.31-2.432-4.342-3.338-6.773-2.029
		c-8.913,4.804-15.398,10.521-19.276,16.991C202.19,229.728,202.96,232.799,205.329,234.219z"/>
	<path d="M456.817,245.107c-6.436-7.629-15.42-21.291-21.676-43.058c-6.194-21.554-18.85-40.354-37.637-55.919
		c-0.689-0.571-3.738-2.988-4.472-3.548c-14.222-10.858-31.701-20.073-52.006-27.414c-10.356-3.746-21.595-7.051-33.428-9.83
		c-0.472-0.111-2.439-0.562-2.881-0.662c-5.595-1.266-11.48-2.442-17.518-3.501c-58.729-10.286-124.474,23.734-154.33,49.113
		c-6.502,5.523-8.32,14.949-4.321,22.412c0.495,0.925,1.016,1.81,1.551,2.672c-53.829,2.985-103.922,33.965-123.667,50.745
		c-6.503,5.526-8.321,14.952-4.322,22.412c5.745,10.721,12.827,14.775,16.46,16.227c4.702,7.235,25.425,33.588,88.414,54.584
		c50.492,16.831,88.587,25.101,116.487,25.101c11.521,0,21.308-1.412,29.505-4.214c8.523,9.461,19.284,17.103,34.832,20.496
		c1.861,0.406,3.773,0.612,5.686,0.612c0,0,0,0,0,0c5.222,0,10.328-1.508,14.764-4.358l0.606-0.39
		c16.508-10.613,21.75-32.351,11.935-49.486c-4.926-8.601-8.996-18.431-12.095-29.219c-1.468-5.11-3.3-10.058-5.482-14.843
		c17.886,3.71,33.374,5.57,46.608,5.57c11.547,0,21.383-1.411,29.617-4.229c9.904,10.951,21.043,17.508,34.803,20.515
		c1.849,0.403,3.735,0.603,5.623,0.603c5.184-0.001,10.376-1.497,14.826-4.352l18.422-11.841c3.954-2.544,6.623-6.671,7.324-11.322
		C461.141,253.362,459.819,248.669,456.817,245.107z M110.147,309.854c-57.087-19.029-77.388-42.436-82.443-49.479
		c3.582-5.844,15.43-20.884,42.514-20.884c4.683,0,9.668,0.459,14.815,1.363c39.989,7.025,114.424,20.102,141.394,59.881
		c2.893,4.267,5.684,8.882,8.384,13.345c3.622,5.988,7.285,12.035,11.412,17.736C220.103,338.836,175.447,331.62,110.147,309.854z
		 M312.122,312.072c7.168,12.513,3.361,28.372-8.664,36.103l-0.606,0.39c-3.844,2.471-8.546,3.339-12.911,2.39
		c-24.354-5.315-35.146-23.158-46.573-42.049c-2.766-4.572-5.625-9.3-8.663-13.78c-25.791-38.04-86.345-53.298-147.94-64.119
		c-5.717-1.004-11.284-1.514-16.546-1.514c-30.484,0-45.056,16.502-50.398,24.666c-2.404-1.573-5.828-4.626-8.896-10.353
		c-1.789-3.337-0.954-7.571,1.984-10.068c21.365-18.155,68.107-44.523,114.804-48.178c-4.731,3.849-8.154,7.416-8.408,7.682
		c-1.904,1.999-1.827,5.162,0.17,7.066c0.968,0.923,2.209,1.382,3.449,1.382c1.319,0,2.636-0.52,3.619-1.549
		c0.092-0.097,11.928-10.677,20.202-14.723c6.564-0.077,14.603,1.853,15.749,2.064c-15.781,8.635-19.997,17.271-20.51,18.446
		c-1.106,2.53,0.049,5.478,2.579,6.584c0.652,0.284,1.331,0.419,2,0.419c1.927,0,3.763-1.12,4.584-2.999
		c0.045-0.103,5.066-10.323,27.853-19.019c6.38,1.484,12.443,3.087,18.192,4.798c-15.186,7.279-20.8,18.058-21.091,18.633
		c-1.237,2.452-0.256,5.426,2.186,6.683c0.727,0.374,1.504,0.551,2.271,0.551c1.809,0,3.559-0.985,4.454-2.694
		c0.288-0.551,7.19-13.297,27.722-18.022c16.814,6.173,30.553,13.337,41.76,21.046c-13.483,4.792-20.685,13.002-21.052,13.429
		c-1.795,2.086-1.56,5.222,0.518,7.027c0.944,0.82,2.11,1.222,3.272,1.222c1.395,0,2.784-0.579,3.774-1.708
		c0.086-0.097,8.355-9.343,23.529-12.388c20.068,16.68,29.94,35.085,34.557,51.155C302.415,292.202,306.798,302.776,312.122,312.072
		z M297.044,251.454c-10.162-16.535-25.06-30.812-44.553-42.633c-23.402-14.192-53.002-24.665-88.027-31.149
		c-1.227-0.227-4.004-0.715-4.153-0.741c16.141-15.839,40.572-13.766,51.159-11.907c39.99,7.028,114.428,20.111,141.396,59.881
		c2.89,4.263,5.679,8.875,8.376,13.334c3.588,5.933,7.267,12.016,11.44,17.757C355.486,260.673,330.615,259.171,297.044,251.454z
		 M450.556,256.494c-0.272,1.809-1.31,3.413-2.844,4.4l-18.417,11.838c-3.851,2.471-8.557,3.344-12.912,2.394
		c-12.57-2.747-22.614-9.054-31.608-19.849c-5.605-6.719-10.368-14.595-14.975-22.212c-2.763-4.568-5.62-9.293-8.656-13.771
		c-25.79-38.031-86.345-53.292-147.943-64.118c-38.104-6.688-57.22,10.335-64.897,20.307c-1.914-0.14-3.844-0.239-5.787-0.296
		c-1.905-1.96-3.636-4.372-5.154-7.207c-1.789-3.34-0.957-7.574,1.981-10.069c12.063-10.254,34.62-24.964,61.753-35.497
		c21.191-8.227,53.03-16.879,84.374-11.388c1.611,0.283,3.211,0.574,4.796,0.873c-4.466,3.143-7.429,6.355-9.871,9.007
		c-0.828,0.899-1.61,1.749-2.329,2.453c-1.973,1.932-2.006,5.097-0.075,7.07c0.979,1,2.276,1.502,3.573,1.502
		c1.262,0,2.525-0.475,3.498-1.428c0.904-0.885,1.771-1.827,2.689-2.824c3.619-3.931,8.097-8.776,17.661-12.574
		c6.227,1.465,12.275,3.079,18.106,4.827c-15.105,7.279-20.69,18.008-20.98,18.582c-1.237,2.452-0.256,5.426,2.186,6.683
		c0.727,0.374,1.504,0.551,2.271,0.551c1.809,0,3.559-0.985,4.454-2.694c0.288-0.549,7.145-13.217,27.526-17.978
		c15.938,5.869,29.973,12.92,41.861,21.038c-13.421,4.796-20.591,12.967-20.957,13.393c-1.795,2.086-1.56,5.222,0.518,7.027
		c0.944,0.82,2.11,1.222,3.272,1.222c1.395,0,2.784-0.579,3.774-1.708c0.085-0.097,8.33-9.313,23.46-12.373
		c17.321,14.294,28.977,31.483,34.625,51.138c6.744,23.464,16.58,38.371,23.642,46.741
		C450.336,252.934,450.828,254.689,450.556,256.494z"/>
	<path d="M378.449,212.386c-1.792-3.079-3.744-6.093-5.803-8.956c-1.611-2.24-4.735-2.753-6.978-1.141
		c-2.242,1.611-2.753,4.736-1.141,6.979c1.872,2.604,3.648,5.345,5.279,8.147c0.928,1.596,2.604,2.486,4.326,2.486
		c0.854,0,1.719-0.219,2.51-0.68C379.03,217.833,379.838,214.773,378.449,212.386z"/>
	<path d="M304.187,154.12c-21.833-8.692-42.821-15.159-62.382-19.22c-2.708-0.563-5.351,1.176-5.912,3.879
		c-0.562,2.704,1.175,5.351,3.879,5.912c18.995,3.943,39.422,10.241,60.716,18.72c21.52,8.568,39.024,19.323,52.028,31.967
		c0.972,0.944,2.229,1.415,3.485,1.415c1.303,0,2.605-0.507,3.585-1.515c1.925-1.979,1.88-5.146-0.1-7.07
		C345.537,174.646,326.932,163.177,304.187,154.12z"/>
	<path d="M220.102,131.325c-2.944-0.348-5.861-0.63-8.67-0.838c-2.757-0.229-5.152,1.862-5.356,4.616s1.863,5.152,4.617,5.356
		c2.664,0.197,5.435,0.466,8.235,0.797c0.199,0.023,0.397,0.034,0.593,0.034c2.499,0,4.659-1.87,4.959-4.413
		C224.805,134.135,222.844,131.649,220.102,131.325z"/>
	<path d="M249.362,125.858c1.319,0,2.636-0.52,3.619-1.549c0.018-0.019,1.839-1.922,4.564-4.345
		c2.063-1.834,2.249-4.995,0.415-7.059c-1.835-2.063-4.995-2.251-7.059-0.414c-3.056,2.717-5.074,4.83-5.159,4.918
		c-1.904,1.999-1.827,5.162,0.17,7.066C246.88,125.399,248.122,125.858,249.362,125.858z"/>
	<path d="M331.767,158.388c0.805,0.482,1.691,0.712,2.565,0.712c1.7,0,3.356-0.867,4.293-2.431
		c2.125-3.546,5.482-6.912,9.978-10.006c2.274-1.566,2.85-4.679,1.284-6.954c-1.565-2.274-4.677-2.849-6.954-1.284
		c-5.683,3.912-10.019,8.32-12.885,13.104C328.628,153.897,329.398,156.968,331.767,158.388z"/>
	<path d="M412.748,256.721c-10.144-3.622-21.117-17.843-24.491-23.018c-1.505-2.313-4.601-2.97-6.916-1.466
		c-2.315,1.505-2.972,4.602-1.467,6.917c0.568,0.875,14.098,21.479,29.511,26.984c0.556,0.198,1.123,0.292,1.682,0.292
		c2.053,0,3.979-1.274,4.708-3.319C416.704,260.511,415.348,257.65,412.748,256.721z"/>
</g>
<g>
</g>
<g>
</g>
<g>
</g>
<g>
</g>
<g>
</g>
<g>
</g>
<g>
</g>
<g>
</g>
<g>
</g>
<g>
</g>
<g>
</g>
<g>
</g>
<g>
</g>
<g>
</g>
<g>
</g>
</svg>
