<?xml version="1.0"?>
<svg xmlns="http://www.w3.org/2000/svg" id="Outline" viewBox="0 0 512 512" width="512" height="512"><path d="M488,448H424V428.66A40.057,40.057,0,0,0,448,392V328a8,8,0,0,0-8-8H312a8,8,0,0,0-8,8v64a40.057,40.057,0,0,0,24,36.66V448H249.2c14.753-38.273,22.8-86.014,22.8-136,0-85.183-23.574-161.345-59.656-196.015A87.506,87.506,0,0,0,256,40a8,8,0,0,0-8-8H88a8,8,0,0,0-8,8,87.506,87.506,0,0,0,43.656,75.985C87.574,150.655,64,226.817,64,312c0,49.986,8.051,97.727,22.8,136H24a8,8,0,0,0-8,8v32a8,8,0,0,0,8,8H488a8,8,0,0,0,8-8V456A8,8,0,0,0,488,448ZM376,432a8,8,0,0,0,0-16H344a24.027,24.027,0,0,1-24-24V336H432v56a24.027,24.027,0,0,1-24,24,8,8,0,0,0,0,16v16H344V432ZM86.026,384H249.974q-1.417,8.145-3.158,16H89.184Q87.447,392.149,86.026,384Zm14.843-200H235.131q1.329,3.548,2.588,7.227c.98,2.875,1.907,5.811,2.811,8.773H95.47c.9-2.962,1.831-5.9,2.811-8.773Q99.536,187.543,100.869,184Zm42-63.238a8,8,0,0,0-1.634-13.961A71.642,71.642,0,0,1,96.438,48H239.562a71.642,71.642,0,0,1-44.8,58.8,8,8,0,0,0-1.634,13.961c13.108,9.248,25.294,25.643,35.329,47.238H107.543C117.578,146.405,129.764,130.01,142.872,120.762ZM91.062,216H244.938C252.2,245.321,256,278.008,256,312a431.754,431.754,0,0,1-3.587,56H83.587A431.754,431.754,0,0,1,80,312C80,278.008,83.8,245.321,91.062,216Zm2.082,200H242.856a269.686,269.686,0,0,1-10.89,32H104.034A269.686,269.686,0,0,1,93.144,416ZM480,480H32V464H480Z"/></svg>
