<svg id="Capa_1" enable-background="new 0 0 512 512" height="512" viewBox="0 0 512 512" width="512" xmlns="http://www.w3.org/2000/svg"><g><circle cx="316" cy="414.5" r="7.5"/><circle cx="181" cy="172.5" r="7.5"/><circle cx="211" cy="202.5" r="7.5"/><path d="m411.488 77.389c-1.419-1.524-3.406-2.389-5.488-2.389h-127.5v-22.5c0-4.136 3.364-7.5 7.5-7.5h75c4.142 0 7.5-3.357 7.5-7.5v-30c0-4.143-3.358-7.5-7.5-7.5h-75c-28.949 0-52.5 23.552-52.5 52.5v22.5h-127.5c-2.082 0-4.069.865-5.488 2.389-1.418 1.522-2.141 3.567-1.993 5.644l28.019 394.127c1.388 19.536 17.818 34.84 37.405 34.84h184.114c19.586 0 36.017-15.304 37.405-34.841l28.019-394.127c.148-2.076-.574-4.121-1.993-5.643zm-43.616 12.611-3.199 45h-86.173v-45zm-126.872 342h30c4.142 0 7.5-3.357 7.5-7.5v-274.5h85.106l-22.523 316.826c-16.897-.876-26.24-4.936-36.066-9.205-12.017-5.222-24.444-10.621-49.017-10.621s-37 5.399-49.017 10.621c-9.826 4.27-19.169 8.329-36.066 9.205l-22.523-316.826h85.106v274.5c0 4.143 3.358 7.5 7.5 7.5zm7.5-15v-267h15v267zm0-364.5c0-20.678 16.822-37.5 37.5-37.5h67.5v15h-67.5c-12.407 0-22.5 10.094-22.5 22.5v22.5h-15zm15 37.5v45h-15v-22.5c0-4.143-3.358-7.5-7.5-7.5s-7.5 3.357-7.5 7.5v22.5h-86.173l-3.199-45zm107 386.095c-.833 11.722-10.691 20.905-22.443 20.905h-184.114c-11.752 0-21.61-9.183-22.443-20.905l-27.448-386.095h15.038l27.372 385.032c.279 3.926 3.545 6.968 7.481 6.968 24.573 0 37-5.399 49.017-10.621 11.1-4.823 21.584-9.379 43.04-9.379s31.939 4.556 43.04 9.379c12.017 5.222 24.443 10.621 49.017 10.621 3.936 0 7.202-3.042 7.481-6.968l27.371-385.032h15.038z"/></g></svg>