<?xml version="1.0"?>
<svg xmlns="http://www.w3.org/2000/svg" id="Outline" viewBox="0 0 512 512" width="512" height="512"><path d="M138.321,230.414l13.387,6.7A40.051,40.051,0,0,0,191.37,272h128a40.045,40.045,0,0,0,40-40V185.88a24.083,24.083,0,0,0,8-17.88V144a39.989,39.989,0,0,0-5.7-20.584l76.487-94.379A8,8,0,0,0,431.938,16H390.749a8,8,0,0,0-6.215,2.963L315.616,104H285.3l60.755-74.963A8,8,0,0,0,339.84,16H298.65a8,8,0,0,0-6.214,2.963L223.517,104H204.13a72.248,72.248,0,0,0-62.191,35.72l-20.277,34.765a39.983,39.983,0,0,0,16.659,55.929Zm-5.116-28.92a23.715,23.715,0,0,1,1.07-16.593l48.313,26.347-6.654,11.645a8.006,8.006,0,0,1-10.525,3.182L145.475,216.1A23.751,23.751,0,0,1,133.205,201.494Zm25.109-57.677,43.963,39.968a39.825,39.825,0,0,0-11.063,12.366l-.687,1.2-48.313-26.347,13.546-23.225C156.556,146.416,157.413,145.1,158.314,143.817ZM262.522,120l19.543,25.4-18.978,23.416L222.409,120Zm-14.273,56H225.94a39.816,39.816,0,0,0-7.622.745l-49.013-44.56a56.188,56.188,0,0,1,32.331-12.122Zm95.121,56a24.027,24.027,0,0,1-24,24h-128a24.019,24.019,0,0,1-21.376-13.111,23.98,23.98,0,0,0,19.832-12.06l15.282-26.744A24.031,24.031,0,0,1,225.94,192H244.3l-1.931,2.383a24,24,0,1,0,37.292,30.222L306.083,192H343.37Zm8-88v24a8.029,8.029,0,0,1-4,6.935,7.872,7.872,0,0,1-4,1.065H319.05l31.357-38.692A24.012,24.012,0,0,1,351.37,144ZM394.562,32h20.595L267.228,214.532A8,8,0,0,1,254.8,204.457ZM292.421,132.621,282.709,120h19.94ZM302.464,32h20.6l-58.353,72h-20.6Z"/><path d="M488,352h-.025c0-.084-.006-.174-.009-.242-.2-19.427-24.308-35.279-71.664-47.117C373.38,293.909,316.438,288,255.967,288s-117.408,5.909-160.331,16.641c-47.359,11.838-71.469,27.69-71.668,47.117-.166,3.436-.459,28.132,23.07,53.542,15.849,17.113,38.92,30.73,68.575,40.471,25.677,8.435,56.415,13.966,91.757,16.544V472a24.028,24.028,0,0,0,24,24h48a24.027,24.027,0,0,0,24-24v-9.6c35.844-2.54,66.985-8.1,92.95-16.629,29.656-9.741,52.727-23.358,68.576-40.471,22.475-24.273,23.214-47.878,23.09-52.94C487.988,352.24,488,352.121,488,352ZM99.516,320.162C141.207,309.74,196.77,304,255.967,304s114.764,5.74,156.455,16.162c43.95,10.988,59.545,24.019,59.545,31.838,0,.144,0,.26.009.385-.348,5.51-8.226,13.442-27.817,21.421-7.07-10.621-25.91-19.162-57.06-25.925C351.813,340.22,305.031,336,255.369,336s-96.444,4.22-131.729,11.881c-30.754,6.677-49.51,15.087-56.787,25.521C47.534,365.374,40,357.43,40,352h-.033C39.967,344.181,55.562,331.15,99.516,320.162Zm328.319,59.409c-4.69,1.445-9.806,2.873-15.384,4.267C370.76,394.26,315.2,400,256,400s-114.76-5.74-156.451-16.162c-5.938-1.485-11.341-3.007-16.276-4.548,5.911-4.36,19.145-10.429,43.761-15.773C161.237,356.09,206.814,352,255.369,352S349.5,356.09,383.7,363.517C408.857,368.978,422.12,375.193,427.835,379.571ZM287.37,472a8.009,8.009,0,0,1-8,8h-48a8.009,8.009,0,0,1-8-8v-8.735q15.748.731,32.6.735,16.209,0,31.4-.679Zm165.269-77.018C411.372,438.8,322.91,448,255.967,448,134.682,448,82.072,419.169,59.3,394.982a82.664,82.664,0,0,1-9.261-11.74q17.2,8.994,45.635,16.117C138.592,410.091,195.532,416,256,416s117.408-5.909,160.331-16.641q28.349-7.086,45.534-16.064A82.807,82.807,0,0,1,452.639,394.982Z"/></svg>
