<svg id="Capa_1" enable-background="new 0 0 512.43 512.43" height="512" viewBox="0 0 512.43 512.43" width="512" xmlns="http://www.w3.org/2000/svg"><g><path d="m480.152 430.733h-58.177c38.627-24.38 52.441-79.727 28.945-119.643-4.655-8.52-17.97-1.056-13.065 7.368 14.025 23.941 12.408 56.943-3.298 79.141h-29.24c-9.729-.143-9.733 15.144.001 15-.001 0 15.808 0 15.808 0-16.797 15.718-42.332 19.641-65.418 18.134 53.064-31.569 53.053-119.104 0-150.667 22.312-1.213 46.401 1.621 63.878 16.781 7.409 6.24 17.132-5.635 9.445-11.654-28.717-27.769-87.093-18.857-123.114-20.126-88.266-1.723-123.473 119.488-49.789 165.666h-42.11c2.919-26.875-14.558-44.335-41.416-41.417 2.254-40.334-24.573-43.228-57.2-41.415-22.223-.221-35.205 20.816-32.35 41.415-22.532-.735-36.076 20.521-33.133 41.417-30.885-.99-34.268 1.347-33.133 32.633.672 18.556 20.224 15.472 33.133 15.5-.041 12.782-2.904 32.626 15.501 33.133 14.113-1.844 48.926 7.689 49.199-15.499v-17.634h50.482c4.143 0 7.5-3.357 7.5-7.5s-3.357-7.5-7.5-7.5c-.386-.488-133.503.94-133.315-.499-.001-.001-.001-17.134-.001-17.134-.222-1.521 447.947.046 448.367-.501.275.001.5.226.5.501v17.133c.305 1.447-285.191.007-285.551.501-4.142-.001-7.5 3.356-7.5 7.499s3.357 7.5 7.5 7.5h202.717c-.041 12.782-2.904 32.626 15.501 33.133 14.113-1.844 48.926 7.689 49.199-15.499v-17.634c12.785.044 32.628 2.899 33.133-15.501.038-12.857 2.851-31.959-15.499-32.632zm-380.533 48.133v17.634c0 .275-.225.5-.5.5-.503-.446-34.306.879-34.199-.499-.001-.001-.001-17.635-.001-17.635zm-34.701-57.199c.49-22.503 27.484-16.734 42.201-17.35 9.726.144 9.734-15.146-.001-15.001h-9.067c-1.329-12.623 2.403-26.064 17.351-26.416 22.496.463 45.022-5.742 42.199 26.416-6.523.928-25.059-3.801-24.85 7.5 0 4.143 3.357 7.5 7.5 7.5h41.417c14.92.337 18.695 13.81 17.35 26.417h-134.1zm165.666-66.267c1.776-99.004 148.906-98.989 150.667.003-1.775 99.001-148.906 98.985-150.667-.003zm216.934 141.1c.118 1.378-33.71.056-34.201.501-.274-.001-.499-.226-.499-.501v-17.634h34.7z"/><path d="m354.834 355.4c-1.219-64.536-96.86-63.968-97.833.002 1.22 64.532 96.861 63.966 97.833-.002zm-82.833 0c0-3.141.438-6.179 1.241-9.067h16.11c9.731.143 9.731-15.144-.001-15h-7.305c23.584-24.395 66.285.306 56.547 33.134h-16.109c-9.731-.143-9.731 15.144.001 15-.001 0 7.304 0 7.304 0-19.836 21.15-58.798 5.372-57.788-24.067z"/><path d="m102.228 67.829c-13.04-1.206-31.952-5.609-34.267 12.846-1.644 14.515-5.05 33.059 15.538 33.833-5.53 52.666 36.903 99.595 89.886 99.292 66.143 2.886 142.338 4.324 155.718-77.804l57.077 4.994c1.339.057 57.924 5.181 59.146 5.114 17.035-.19 16.189-18.628 17.16-30.912.759-8.669-5.678-16.34-14.347-17.098-30.973-2.715-94.618-8.274-125.799-11.006-7.112-16.121-18.741-29.533-33.03-38.953h157.708c8.547 0 15.5-6.953 15.5-15.5.06-12.729 2.762-32.094-15.501-32.635h-365.032c-8.547 0-15.5 6.953-15.5 15.5v17.134c0 8.547 6.953 15.5 15.5 15.5h41.604c-8.055 5.319-15.29 11.943-21.361 19.695zm-20.588 31.229c-.139-.165-.199-.357-.181-.571l1.444-16.505c.042-2.268 297.835 26.045 298.694 25.348l-1.581 18.063c-85.259-7.69-213.635-18.251-298.376-26.335zm124.421 33.475h-16.109c-9.731-.143-9.731 15.144.001 15-.001 0 7.305 0 7.305 0-21.171 22.582-62.374 2.936-57.529-28.106l67.52 5.907c-.137 2.481-.546 4.888-1.188 7.199zm-108.01-9.066c0-2.557.138-5.113.394-7.651l26.315 2.302c-5.763 65.733 92.035 73.654 97.427 8.524l26.311 2.302c-6.836 94.572-150.34 89.72-150.447-5.477zm204.022 42.2h-29.289c-9.729-.143-9.733 15.144.001 15-.001 0 15.913 0 15.913 0-16.837 15.743-42.411 19.628-65.523 18.133 22.639-15.013 38.154-39.943 40.289-68.547l50.69 4.435c-1.693 11.381-5.927 21.891-12.081 30.979zm145.47-51.782-1.443 16.502c.022 2.178-50.33-4.319-51.14-3.687l1.581-18.063c.716.801 51.357 3.051 51.002 5.248zm-142.805-28.338-51.604-4.515c-7.193-13.48-17.623-24.708-30.047-32.898 31.959-3.021 65.634 8.475 81.651 37.413zm142.78-70.047v17.134c.101 1.447-50.761.008-51.267.5v-18.134c.548.492 51.336-.946 51.267.5zm-365.533 17.634c-1.284.023-.118-17.048-.501-17.634-.1-1.448 299.26-.006 299.767-.5v18.134c-85.962 0-214.037 0-299.266 0zm152.488 46.265-113.595-9.938c31.057-31.894 88.576-26.679 113.595 9.938z"/></g></svg>