<?xml version="1.0" encoding="iso-8859-1"?>
<!-- Generator: Adobe Illustrator 19.0.0, SVG Export Plug-In . SVG Version: 6.00 Build 0)  -->
<svg version="1.1" id="Capa_1" xmlns="http://www.w3.org/2000/svg" xmlns:xlink="http://www.w3.org/1999/xlink" x="0px" y="0px"
	 viewBox="0 0 512.001 512.001" style="enable-background:new 0 0 512.001 512.001;" xml:space="preserve">
<g>
	<g>
		<rect x="63.765" y="326.388" width="14.941" height="14.999"/>
	</g>
</g>
<g>
	<g>
		<rect x="71.235" y="294.01" width="14.941" height="14.999"/>
	</g>
</g>
<g>
	<g>
		<rect x="121.712" y="299.99" width="14.941" height="14.999"/>
	</g>
</g>
<g>
	<g>
		<rect x="103.953" y="336.347" width="14.942" height="14.999"/>
	</g>
</g>
<g>
	<g>
		<rect x="134.161" y="358.926" width="14.942" height="14.999"/>
	</g>
</g>
<g>
	<g>
		<rect x="202.567" y="346.137" width="14.942" height="14.999"/>
	</g>
</g>
<g>
	<g>
		<rect x="239.964" y="323.158" width="14.941" height="14.999"/>
	</g>
</g>
<g>
	<g>
		<rect x="282.301" y="307.959" width="14.942" height="14.999"/>
	</g>
</g>
<g>
	<g>
		<rect x="310.189" y="289.19" width="14.942" height="14.999"/>
	</g>
</g>
<g>
	<g>
		<rect x="165.879" y="331.528" width="14.942" height="14.999"/>
	</g>
</g>
<g>
	<g>
		
			<rect x="338.006" y="233.806" transform="matrix(0.9269 -0.3754 0.3754 0.9269 -65.0962 148.4703)" width="20.995" height="14.999"/>
	</g>
</g>
<g>
	<g>
		<path d="M325.1,242.693l-7.716,3.126c-35.641,14.433-73.208,21.752-111.661,21.752h-47.888v14.999h47.888
			c40.391,0,79.854-7.688,117.291-22.85l7.716-3.126L325.1,242.693z"/>
	</g>
</g>
<g>
	<g>
		<path d="M508.729,130.349c-4.526-6.055-12.605-8.189-23.027-6.344c1.846-10.421-0.29-18.502-6.345-23.027
			c-3.884-2.903-12.605-6.458-27.394,2.362c-9.002,5.368-18.383,14.239-26.412,24.978c-6.268,8.383-11.193,17.183-14.319,25.561
			l-28.009,27.848c-1.258,0.169-2.549,0.505-3.869,1.04c-9.944,4.027-13.687,9.962-16.696,14.731
			c-2.513,3.984-4.173,6.617-9.639,8.83c-5.469,2.214-8.491,1.478-13.067,0.365c-5.479-1.332-12.297-2.991-22.242,1.038
			c-6.144,2.488-10.494,7.811-14.334,12.507c-2.984,3.651-6.071,7.427-8.719,8.212c-2.667,0.796-7.321-0.691-11.824-2.125
			c-5.771-1.837-12.312-3.92-18.802-2.657c-6.49,1.264-11.77,5.65-16.431,9.52c-3.635,3.02-7.393,6.142-10.161,6.409
			c-2.755,0.274-7.028-2.075-11.164-4.339c-5.322-2.912-11.353-6.213-17.981-6.213c-9.946,0-15.34,4.444-19.278,7.687
			c-3.229,2.661-5.179,4.267-9.742,4.267c-4.563,0-6.513-1.605-9.741-4.266c-3.938-3.245-9.331-7.688-19.278-7.688
			s-15.34,4.444-19.278,7.688c-3.229,2.66-5.177,4.266-9.738,4.266c-4.563,0-6.512-1.605-9.739-4.266
			c-3.938-3.245-9.332-7.688-19.278-7.688c-9.21,0-15.982,6.073-21.957,11.43c-3.038,2.725-6.18,5.542-8.768,6.615
			c-2.824,1.171-7.204,1.436-11.441,1.692c-7.866,0.476-16.782,1.015-23.042,7.274c-6.259,6.26-6.798,15.176-7.273,23.041
			c-0.257,4.237-0.521,8.618-1.692,11.442c-1.073,2.588-3.89,5.729-6.614,8.766C6.073,305.282,0,312.056,0,321.267
			c0,7.492,5.994,12.101,10.811,15.805c1.557,1.196,4.127,3.174,4.748,4.156c0.165,1.173-0.6,4.416-1.062,6.378
			c-1.34,5.682-3.008,12.751,1.232,18.455c4.069,5.473,11.128,6.111,16.801,6.625c2.021,0.183,5.338,0.482,6.475,1.013
			c0.665,1.073,1.327,4.377,1.729,6.388c1.087,5.429,2.44,12.184,8.011,15.696c5.838,3.68,12.749,1.944,18.303,0.551
			c1.814-0.455,4.826-1.195,5.958-1.137c1.255,0.812,3.357,4.455,4.513,6.456c2.776,4.812,5.924,10.263,11.887,11.538
			c3.493,0.746,6.957,1.061,10.394,1.06c9.379,0,18.549-2.341,27.492-4.624c7.24-1.849,14.078-3.595,20.562-3.979
			c6.761-0.405,14.013,0.606,21.687,1.674c12.133,1.687,24.679,3.431,36.943-0.255c11.498-3.458,20.728-11.286,29.651-18.857
			c6.339-5.376,12.324-10.454,18.807-13.795c6.423-3.311,14.111-5.174,22.254-7.147c11.169-2.707,22.719-5.506,32.444-12.451
			c9.41-6.721,15.74-16.442,21.86-25.845c4.724-7.256,9.185-14.108,14.716-19.144c5.71-5.198,13.113-9.056,20.952-13.142
			c9.761-5.088,19.854-10.348,27.331-18.74c5.74-6.444,4.89-13.217,4.327-17.699c-0.49-3.908-0.406-4.674,0.645-5.853
			c1.05-1.18,1.804-1.355,5.742-1.313c4.512,0.033,11.349,0.106,17.104-6.362c4.781-5.413,1.224-12.102-1.319-16.654
			c2.813-0.602,9.194-2.054,11.25-7.468l23.612-24.132c8.365-3.125,17.154-8.046,25.53-14.309
			C502.926,168.052,519.234,144.401,508.729,130.349z M407.72,237.06c0.16,0.286,0.347,0.618,0.539,0.968
			c-0.721,0.057-1.652,0.066-2.909,0.054c-4.521-0.047-11.345-0.106-17.084,6.336s-4.889,13.215-4.326,17.697
			c0.49,3.908,0.406,4.674-0.645,5.854c-5.648,6.341-14.108,10.749-23.063,15.417c-8.342,4.349-16.969,8.844-24.116,15.351
			c-6.955,6.331-12.157,14.323-17.189,22.054c-5.606,8.612-10.902,16.748-18.006,21.821c-7.363,5.259-17.028,7.602-27.261,10.08
			c-8.64,2.095-17.575,4.26-25.592,8.392c-8.005,4.127-14.936,10.004-21.638,15.689c-8.107,6.878-15.767,13.374-24.269,15.931
			c-9.122,2.746-19.535,1.297-30.557-0.237c-8.06-1.12-16.395-2.279-24.642-1.791c-7.914,0.47-15.777,2.478-23.382,4.419
			c-10.713,2.735-20.847,5.325-30.206,3.596c-0.783-0.924-2.016-3.059-2.867-4.534c-2.642-4.576-5.929-10.27-11.641-12.786
			c-5.011-2.206-10.565-0.813-15.469,0.417c-1.924,0.482-4.994,1.262-6.471,1.219c-0.569-1.279-1.132-4.091-1.487-5.864
			c-1.024-5.112-2.185-10.906-6.489-14.706c-4.193-3.702-9.972-4.226-15.07-4.687c-1.743-0.157-4.464-0.403-5.879-0.808
			c0.051-1.474,0.686-4.168,1.093-5.892c1.112-4.72,2.374-10.067,0.549-15.016c-1.75-4.744-5.969-7.987-9.69-10.851
			c-1.598-1.229-4.201-3.229-4.938-4.328c0.286-3.396,3.993-7.528,7.581-11.531c3.563-3.974,7.247-8.082,9.301-13.033
			c2.136-5.151,2.479-10.81,2.81-16.283c0.33-5.46,0.671-11.104,2.907-13.341c2.237-2.237,7.882-2.578,13.342-2.908
			c5.474-0.331,11.132-0.674,16.281-2.81c4.953-2.053,9.062-5.738,13.037-9.302c4.165-3.736,8.472-7.599,11.942-7.599
			c4.563,0,6.512,1.605,9.739,4.266c3.938,3.245,9.332,7.688,19.278,7.688c9.945,0,15.339-4.444,19.277-7.688
			c3.229-2.66,5.177-4.266,9.739-4.266c4.563,0,6.513,1.605,9.741,4.266c3.938,3.245,9.331,7.688,19.278,7.688
			s15.341-4.444,19.279-7.688c3.229-2.66,5.179-4.266,9.741-4.266c2.793,0,6.854,2.223,10.78,4.371
			c5.843,3.198,12.464,6.821,19.806,6.111c7.36-0.71,13.175-5.54,18.305-9.8c3.437-2.854,6.99-5.806,9.714-6.337
			c2.724-0.522,7.126,0.871,11.383,2.228c6.354,2.023,13.557,4.317,20.645,2.212c7.073-2.1,11.849-7.943,16.063-13.098
			c2.834-3.467,5.764-7.051,8.352-8.099c5.465-2.213,8.488-1.479,13.067-0.365c5.478,1.333,12.298,2.99,22.242-1.038
			c9.944-4.027,13.687-9.962,16.695-14.731c2.514-3.984,4.174-6.617,9.639-8.829c1.475-0.619,6.549,4.227,8.713,6.289
			c2.228,2.122,4.532,4.316,6.973,5.961c2.441,1.645,5.339,2.957,8.141,4.226c1.466,0.663,3.988,1.806,6.007,2.968
			c-3.726,1.026-8.148,3.018-10.042,8.154C403.101,228.804,405.45,233.001,407.72,237.06z M472.406,172.142
			c-6.161,4.607-12.714,8.431-18.874,11.075l-13.266-13.266l-10.606,10.606l11.49,11.49l-14.134,14.446
			c-3.648-3.22-8.321-5.341-12.019-7.014c-2.341-1.06-4.552-2.061-5.945-3c-1.393-0.939-3.151-2.612-5.012-4.384
			c-1.54-1.466-3.295-3.135-5.242-4.705l24.205-24.065l1.798-2.862c2.54-7.326,7.073-15.553,12.763-23.163
			c6.783-9.072,14.831-16.755,22.082-21.079c6.266-3.737,9.991-3.783,10.73-3.231c1.008,0.754,2.249,6.65-2.383,18.116
			l-24.84,24.841l10.606,10.604l24.839-24.84c11.464-4.632,17.362-3.391,18.117-2.381
			C498.52,141.743,492.963,156.773,472.406,172.142z"/>
	</g>
</g>
<g>
</g>
<g>
</g>
<g>
</g>
<g>
</g>
<g>
</g>
<g>
</g>
<g>
</g>
<g>
</g>
<g>
</g>
<g>
</g>
<g>
</g>
<g>
</g>
<g>
</g>
<g>
</g>
<g>
</g>
</svg>
